<mxfile host="app.diagrams.net" modified="2021-01-07T02:57:34.656Z" agent="5.0 (Macintosh; Intel Mac OS X 10_15_7) AppleWebKit/537.36 (KHTML, like Gecko) Chrome/87.0.4280.88 Safari/537.36" etag="vx3Sx91nm5sMwiNXQPOG" version="14.1.8" type="github">
  <diagram id="ri83RYFN3dATd4j_m0nU" name="Page-1">
    <mxGraphModel dx="1257" dy="843" grid="1" gridSize="10" guides="1" tooltips="1" connect="1" arrows="1" fold="1" page="1" pageScale="1" pageWidth="827" pageHeight="1169" math="0" shadow="0">
      <root>
        <mxCell id="0" />
        <mxCell id="1" parent="0" />
        <mxCell id="SdU93z3-RCb_yifvpd7z-5" value="" style="group" parent="1" vertex="1" connectable="0">
          <mxGeometry x="130" y="300" width="60" height="90" as="geometry" />
        </mxCell>
        <mxCell id="SdU93z3-RCb_yifvpd7z-2" value="" style="ellipse;whiteSpace=wrap;html=1;aspect=fixed;" parent="SdU93z3-RCb_yifvpd7z-5" vertex="1">
          <mxGeometry y="30" width="60" height="60" as="geometry" />
        </mxCell>
        <mxCell id="SdU93z3-RCb_yifvpd7z-1" value="" style="ellipse;whiteSpace=wrap;html=1;aspect=fixed;strokeWidth=2;fillColor=#FF9999;" parent="SdU93z3-RCb_yifvpd7z-5" vertex="1">
          <mxGeometry x="10" y="40" width="40" height="40" as="geometry" />
        </mxCell>
        <mxCell id="SdU93z3-RCb_yifvpd7z-3" value="NEW" style="text;html=1;strokeColor=none;fillColor=none;align=center;verticalAlign=middle;whiteSpace=wrap;rounded=0;" parent="SdU93z3-RCb_yifvpd7z-5" vertex="1">
          <mxGeometry x="10" width="40" height="20" as="geometry" />
        </mxCell>
        <mxCell id="SdU93z3-RCb_yifvpd7z-6" value="" style="endArrow=classic;html=1;exitX=1;exitY=0;exitDx=0;exitDy=0;entryX=0;entryY=0.5;entryDx=0;entryDy=0;" parent="1" source="SdU93z3-RCb_yifvpd7z-2" target="SdU93z3-RCb_yifvpd7z-8" edge="1">
          <mxGeometry width="50" height="50" relative="1" as="geometry">
            <mxPoint x="210" y="300" as="sourcePoint" />
            <mxPoint x="350" y="210" as="targetPoint" />
          </mxGeometry>
        </mxCell>
        <mxCell id="SdU93z3-RCb_yifvpd7z-7" value="&lt;b&gt;&lt;font style=&quot;font-size: 14px&quot;&gt;新增策略&lt;/font&gt;&lt;/b&gt;" style="edgeLabel;html=1;align=center;verticalAlign=middle;resizable=0;points=[];" parent="SdU93z3-RCb_yifvpd7z-6" vertex="1" connectable="0">
          <mxGeometry x="0.0458" y="-1" relative="1" as="geometry">
            <mxPoint as="offset" />
          </mxGeometry>
        </mxCell>
        <mxCell id="SdU93z3-RCb_yifvpd7z-8" value="DRAFT" style="rounded=0;whiteSpace=wrap;html=1;strokeWidth=1;fillColor=#f5f5f5;strokeColor=#666666;fontColor=#333333;" parent="1" vertex="1">
          <mxGeometry x="310" y="200" width="86" height="40" as="geometry" />
        </mxCell>
        <mxCell id="SdU93z3-RCb_yifvpd7z-9" value="" style="endArrow=classic;html=1;exitX=1;exitY=0.5;exitDx=0;exitDy=0;" parent="1" source="SdU93z3-RCb_yifvpd7z-8" target="SdU93z3-RCb_yifvpd7z-11" edge="1">
          <mxGeometry width="50" height="50" relative="1" as="geometry">
            <mxPoint x="191.21320343559637" y="348.78679656440363" as="sourcePoint" />
            <mxPoint x="510" y="220" as="targetPoint" />
          </mxGeometry>
        </mxCell>
        <mxCell id="SdU93z3-RCb_yifvpd7z-10" value="&lt;b&gt;&lt;font style=&quot;font-size: 14px&quot;&gt;启用&lt;/font&gt;&lt;/b&gt;" style="edgeLabel;html=1;align=center;verticalAlign=middle;resizable=0;points=[];" parent="SdU93z3-RCb_yifvpd7z-9" vertex="1" connectable="0">
          <mxGeometry x="0.0458" y="-1" relative="1" as="geometry">
            <mxPoint as="offset" />
          </mxGeometry>
        </mxCell>
        <mxCell id="SdU93z3-RCb_yifvpd7z-11" value="AUDIT" style="rounded=0;whiteSpace=wrap;html=1;strokeWidth=1;fillColor=#f5f5f5;strokeColor=#666666;fontColor=#333333;" parent="1" vertex="1">
          <mxGeometry x="500" y="200" width="86" height="40" as="geometry" />
        </mxCell>
        <mxCell id="SdU93z3-RCb_yifvpd7z-12" value="" style="endArrow=classic;html=1;exitX=1;exitY=0.5;exitDx=0;exitDy=0;" parent="1" source="SdU93z3-RCb_yifvpd7z-11" target="SdU93z3-RCb_yifvpd7z-14" edge="1">
          <mxGeometry width="50" height="50" relative="1" as="geometry">
            <mxPoint x="640" y="219.5" as="sourcePoint" />
            <mxPoint x="700" y="220" as="targetPoint" />
          </mxGeometry>
        </mxCell>
        <mxCell id="SdU93z3-RCb_yifvpd7z-13" value="&lt;b&gt;&lt;font style=&quot;font-size: 14px&quot;&gt;审核通过&lt;/font&gt;&lt;/b&gt;" style="edgeLabel;html=1;align=center;verticalAlign=middle;resizable=0;points=[];" parent="SdU93z3-RCb_yifvpd7z-12" vertex="1" connectable="0">
          <mxGeometry x="0.0458" y="-1" relative="1" as="geometry">
            <mxPoint as="offset" />
          </mxGeometry>
        </mxCell>
        <mxCell id="SdU93z3-RCb_yifvpd7z-14" value="RUNNING" style="rounded=0;whiteSpace=wrap;html=1;strokeWidth=1;fillColor=#f5f5f5;strokeColor=#666666;fontColor=#333333;" parent="1" vertex="1">
          <mxGeometry x="680" y="200" width="86" height="40" as="geometry" />
        </mxCell>
        <mxCell id="SdU93z3-RCb_yifvpd7z-17" value="" style="endArrow=classic;html=1;exitX=0.5;exitY=1;exitDx=0;exitDy=0;edgeStyle=orthogonalEdgeStyle;entryX=0.5;entryY=1;entryDx=0;entryDy=0;" parent="1" source="SdU93z3-RCb_yifvpd7z-11" target="SdU93z3-RCb_yifvpd7z-8" edge="1">
          <mxGeometry width="50" height="50" relative="1" as="geometry">
            <mxPoint x="596" y="230" as="sourcePoint" />
            <mxPoint x="540" y="340" as="targetPoint" />
            <Array as="points">
              <mxPoint x="543" y="300" />
              <mxPoint x="353" y="300" />
            </Array>
          </mxGeometry>
        </mxCell>
        <mxCell id="SdU93z3-RCb_yifvpd7z-18" value="&lt;b&gt;&lt;font style=&quot;font-size: 14px&quot;&gt;审核拒绝&lt;/font&gt;&lt;/b&gt;" style="edgeLabel;html=1;align=center;verticalAlign=middle;resizable=0;points=[];" parent="SdU93z3-RCb_yifvpd7z-17" vertex="1" connectable="0">
          <mxGeometry x="0.0458" y="-1" relative="1" as="geometry">
            <mxPoint as="offset" />
          </mxGeometry>
        </mxCell>
        <mxCell id="SdU93z3-RCb_yifvpd7z-19" value="" style="endArrow=classic;html=1;exitX=0.5;exitY=0;exitDx=0;exitDy=0;edgeStyle=orthogonalEdgeStyle;entryX=0.5;entryY=0;entryDx=0;entryDy=0;" parent="1" source="SdU93z3-RCb_yifvpd7z-14" target="SdU93z3-RCb_yifvpd7z-11" edge="1">
          <mxGeometry width="50" height="50" relative="1" as="geometry">
            <mxPoint x="730" y="60" as="sourcePoint" />
            <mxPoint x="540" y="60" as="targetPoint" />
            <Array as="points">
              <mxPoint x="723" y="110" />
              <mxPoint x="543" y="110" />
            </Array>
          </mxGeometry>
        </mxCell>
        <mxCell id="SdU93z3-RCb_yifvpd7z-20" value="&lt;span style=&quot;font-size: 14px&quot;&gt;&lt;b&gt;编辑 version+1&lt;/b&gt;&lt;/span&gt;" style="edgeLabel;html=1;align=center;verticalAlign=middle;resizable=0;points=[];" parent="SdU93z3-RCb_yifvpd7z-19" vertex="1" connectable="0">
          <mxGeometry x="0.0458" y="-1" relative="1" as="geometry">
            <mxPoint as="offset" />
          </mxGeometry>
        </mxCell>
        <mxCell id="SdU93z3-RCb_yifvpd7z-23" value="DELETE" style="rounded=0;whiteSpace=wrap;html=1;strokeWidth=1;fillColor=#f5f5f5;strokeColor=#666666;fontColor=#333333;" parent="1" vertex="1">
          <mxGeometry x="680" y="370" width="86" height="40" as="geometry" />
        </mxCell>
        <mxCell id="SdU93z3-RCb_yifvpd7z-24" value="" style="endArrow=classic;html=1;exitX=0.25;exitY=1;exitDx=0;exitDy=0;edgeStyle=orthogonalEdgeStyle;entryX=0;entryY=0.5;entryDx=0;entryDy=0;" parent="1" source="SdU93z3-RCb_yifvpd7z-8" target="SdU93z3-RCb_yifvpd7z-23" edge="1">
          <mxGeometry width="50" height="50" relative="1" as="geometry">
            <mxPoint x="191.21320343559637" y="348.78679656440363" as="sourcePoint" />
            <mxPoint x="620" y="390" as="targetPoint" />
          </mxGeometry>
        </mxCell>
        <mxCell id="SdU93z3-RCb_yifvpd7z-25" value="&lt;b&gt;&lt;font style=&quot;font-size: 14px&quot;&gt;删除&lt;/font&gt;&lt;/b&gt;" style="edgeLabel;html=1;align=center;verticalAlign=middle;resizable=0;points=[];" parent="SdU93z3-RCb_yifvpd7z-24" vertex="1" connectable="0">
          <mxGeometry x="0.0458" y="-1" relative="1" as="geometry">
            <mxPoint as="offset" />
          </mxGeometry>
        </mxCell>
        <mxCell id="AbXKaFXO57wJ8yr3ayPF-1" value="" style="endArrow=classic;html=1;edgeStyle=orthogonalEdgeStyle;entryX=0.5;entryY=0;entryDx=0;entryDy=0;" edge="1" parent="1" source="SdU93z3-RCb_yifvpd7z-14" target="SdU93z3-RCb_yifvpd7z-8">
          <mxGeometry width="50" height="50" relative="1" as="geometry">
            <mxPoint x="733" y="210" as="sourcePoint" />
            <mxPoint x="553" y="210" as="targetPoint" />
            <Array as="points">
              <mxPoint x="723" y="110" />
              <mxPoint x="353" y="110" />
            </Array>
          </mxGeometry>
        </mxCell>
        <mxCell id="AbXKaFXO57wJ8yr3ayPF-3" value="&lt;b&gt;&lt;font style=&quot;font-size: 14px&quot;&gt;下线 copy version+1&lt;/font&gt;&lt;/b&gt;" style="edgeLabel;html=1;align=center;verticalAlign=middle;resizable=0;points=[];" vertex="1" connectable="0" parent="AbXKaFXO57wJ8yr3ayPF-1">
          <mxGeometry x="0.4" y="-2" relative="1" as="geometry">
            <mxPoint as="offset" />
          </mxGeometry>
        </mxCell>
      </root>
    </mxGraphModel>
  </diagram>
</mxfile>
